# xmcd CD database file
#
# Track frame offsets:
#	150
#	14294
#	35461
#	55407
#	74373
#	126886
#	149546
#	173931
#	196562
#	210502
#	228682
#	256992
#	284191
#	301404
#
# Disc length: 4387 seconds
#
# Revision: 0
# Processed by: cddbd v1.5.2PL0 Copyright (c) Steve Scherf et al.
# Submitted via: CDex 2.02
#
DISCID=d511210e
DTITLE=Various Artist - North Mississippi Hill Country Picnic-10th Anniversary
DYEAR=2016
DGENRE=Blues
TTITLE0=Alvin Youngblood Hart's Muscle Theory/Fightin' Hard
TTITLE1=Eric DEaton/Emelda Lee
TTITLE2=Cary Hudson/Guard Your Heart
TTITLE3=Bill Abel/Kokomo Blues
TTITLE4=R. L. Boyce/ R. L. Boogie
TTITLE5=Duwayne Burnside/Alice Mae
TTITLE6=David Kimbrough Jr./Keep Your Hands Off Her
TTITLE7=Rising Star Fife and Drum Band/Sittin' On Top Of The World/Glory, Glory
TTITLE8=Little Joe Ayers/Look A Here Baby
TTITLE9=Solar Porch/Fix Me Some Coffee
TTITLE10=Rev, John Wilkins/Get Right Church
TTITLE11=Gary Burnside/All Night Long
TTITLE12=North Mississippi Allstars/Let It Roll
TTITLE13=Kenny Brown/Wretched Mind
EXTD=YEAR: 2016
EXTT0=
EXTT1=
EXTT2=
EXTT3=
EXTT4=
EXTT5=
EXTT6=
EXTT7=
EXTT8=
EXTT9=
EXTT10=
EXTT11=
EXTT12=
EXTT13=
PLAYORDER=
